{"title":"Jatt &amp; Juliet 2 (2013) DVDSCR - Xvid Mp3 - 1CD (mrsjs)","uid":8636658,"size":733789876,"categoryP":"video","categoryS":"movies","magnet":"?xt=urn:btih:a16e74a4acbbac30d06257dbd9fdc02ae0f8cd81&amp;dn=Jatt+%26amp%3B+Juliet+2+%282013%29+DVDSCR+-+Xvid+Mp3+-+1CD+%28mrsjs%29&amp;tr=udp%3A%2F%2Ftracker.openbittorrent.com%3A80&amp;tr=udp%3A%2F%2Fopen.demonii.com%3A1337&amp;tr=udp%3A%2F%2Ftracker.coppersurfer.tk%3A6969&amp;tr=udp%3A%2F%2Fexodus.desync.com%3A6969","seeders":1,"leechers":0,"uploader":"mrsjs","files":2,"time":1372770230,"description":"                                          ***              \n                                           *               \n                 ***  ****       ****              ****    \n*** **** ****     **** **** *   * **** * ***      * **** * \n *** **** ***  *   **   ****   **  ****   ***    **  ****  \n  **  **** ****    **         ****         **   ****       \n  **   **   **     **           ***        *      ***      \n  **   **   **     **             ***     *         ***    \n  **   **   **     **               ***  ***          ***  \n  **   **   **     **          ****  **   ***    ****  **  \n  **   **   **     ***        * **** *     ***  * **** *   \n  ***  ***  ***     ***          ****       ***    ****    \n   ***  ***  ***                             **            \n                                             **            \n                                             *\n\nGeneral\n\nFormat                                   : AVI\nFormat/Info                              : Audio Video Interleave\nFile size                                : 700 MiB\nDuration                                 : 2h 15mn\nOverall bit rate                         : 721 Kbps\n\nVideo\nID                                       : 0\nFormat                                   : MPEG-4 Visual\nFormat profile                           : Advanced Simple@L5\nFormat settings, BVOP                    : 1\nFormat settings, QPel                    : No\nFormat settings, GMC                     : No warppoints\nFormat settings, Matrix                  : Default (H.263)\nMuxing mode                              : Packed bitstream\nCodec ID                                 : XVID\nCodec ID/Hint                            : XviD\nDuration                                 : 2h 15mn\nBit rate                                 : 636 Kbps\nWidth                                    : 640 pixels\nHeight                                   : 256 pixels\nDisplay aspect ratio                     : 2.500\nFrame rate                               : 23.976 fps\nColor space                              : YUV\nChroma subsampling                       : 4:2:0\nBit depth                                : 8 bits\nScan type                                : Progressive\nCompression mode                         : Lossy\nBits/(Pixel*Frame)                       : 0.162\nStream size                              : 616 MiB (88%)\nWriting library                          : XviD 1.2.1 (UTC 2008-12-04)\n\nAudio\nID                                       : 1\nFormat                                   : MPEG Audio\nFormat version                           : Version 1\nFormat profile                           : Layer 3\nMode                                     : Joint stereo\nMode extension                           : MS Stereo\nCodec ID                                 : 55\nCodec ID/Hint                            : MP3\nDuration                                 : 2h 15mn\nBit rate mode                            : Constant\nBit rate                                 : 80.0 Kbps\nChannel(s)                               : 2 channels\nSampling rate                            : 32.0 KHz\nCompression mode                         : Lossy\nStream size                              : 77.6 MiB (11%)\nAlignment                                : Aligned on interleaves\nInterleave, duration                     : 167 ms (4.00 video frames)\nInterleave, preload duration             : 216 ms\nTitle                                    : VTS_01_1 T80 2_0ch 192Kbps DELAY 0ms\n\n\nCredit goes to Team IcTv","torrent":{"xt":"urn:btih:a16e74a4acbbac30d06257dbd9fdc02ae0f8cd81","amp;dn":"Jatt+%26amp%3B+Juliet+2+%282013%29+DVDSCR+-+Xvid+Mp3+-+1CD+%28mrsjs%29","amp;tr":["udp%3A%2F%2Ftracker.openbittorrent.com%3A80","udp%3A%2F%2Fopen.demonii.com%3A1337","udp%3A%2F%2Ftracker.coppersurfer.tk%3A6969","udp%3A%2F%2Fexodus.desync.com%3A6969"],"infoHash":"a16e74a4acbbac30d06257dbd9fdc02ae0f8cd81","infoHashBuffer":{"type":"Buffer","data":[161,110,116,164,172,187,172,48,208,98,87,219,217,253,192,42,224,248,205,129]},"announce":[],"urlList":[]}}